<svg width="41" height="40" viewBox="0 0 41 40" fill="none" xmlns="http://www.w3.org/2000/svg">
<path d="M31.7286 39.9789L9.45162 40C4.55068 40.0044 0.537478 36.011 0.531909 31.1247L0.510746 8.91419C0.506291 4.02788 4.51169 0.0266564 9.41263 0.0211037L31.6896 3.70228e-06C36.5906 -0.0044384 40.6038 3.98901 40.6093 8.87532L40.6305 31.0858C40.6361 35.9732 36.6295 39.9745 31.7286 39.9789Z" fill="url(#paint0_radial)"/>
<path d="M31.7286 39.9789L9.45162 40C4.55068 40.0044 0.537478 36.011 0.531909 31.1247L0.510746 8.91419C0.506291 4.02788 4.51169 0.0266564 9.41263 0.0211037L31.6896 3.70228e-06C36.5906 -0.0044384 40.6038 3.98901 40.6093 8.87532L40.6305 31.0858C40.6361 35.9732 36.6295 39.9745 31.7286 39.9789Z" fill="url(#paint1_radial)"/>
<path d="M20.5733 27.7726C16.275 27.7726 12.7764 24.2857 12.7764 19.9993C12.7764 15.7129 16.275 12.2261 20.5733 12.2261C24.8717 12.2261 28.3703 15.7129 28.3703 19.9993C28.3703 24.2857 24.8717 27.7726 20.5733 27.7726ZM20.5733 14.447C17.5024 14.447 15.0041 16.9378 15.0041 19.9993C15.0041 23.0609 17.5024 25.5516 20.5733 25.5516C23.6442 25.5516 26.1426 23.0609 26.1426 19.9993C26.1426 16.9378 23.6442 14.447 20.5733 14.447Z" fill="#1C2528"/>
<path d="M28.9266 13.3233C29.8494 13.3233 30.5974 12.5804 30.5974 11.6641C30.5974 10.7477 29.8494 10.0049 28.9266 10.0049C28.0039 10.0049 27.2559 10.7477 27.2559 11.6641C27.2559 12.5804 28.0039 13.3233 28.9266 13.3233Z" fill="#1C2528"/>
<path d="M27.2548 34.4358H13.8887C9.59037 34.4358 6.0918 30.9488 6.0918 26.6622V13.3361C6.0918 9.0495 9.59037 5.5625 13.8887 5.5625H27.2548C31.5531 5.5625 35.0517 9.0495 35.0517 13.3361V26.6622C35.0517 30.9488 31.5531 34.4358 27.2548 34.4358ZM13.8887 7.78352C10.8178 7.78352 8.31948 10.2744 8.31948 13.3361V26.6622C8.31948 29.7239 10.8178 32.2148 13.8887 32.2148H27.2548C30.3256 32.2148 32.824 29.7239 32.824 26.6622V13.3361C32.824 10.2744 30.3256 7.78352 27.2548 7.78352H13.8887Z" fill="#1C2528"/>
<defs>
<radialGradient id="paint0_radial" cx="0" cy="0" r="1" gradientUnits="userSpaceOnUse" gradientTransform="translate(15.4252 40.0289) scale(50.0107 49.8615)">
<stop stop-color="#FFDD55"/>
<stop offset="0.328" stop-color="#FF543F"/>
<stop offset="0.348" stop-color="#FC5245"/>
<stop offset="0.504" stop-color="#E64771"/>
<stop offset="0.643" stop-color="#D53E91"/>
<stop offset="0.761" stop-color="#CC39A4"/>
<stop offset="0.841" stop-color="#C837AB"/>
</radialGradient>
<radialGradient id="paint1_radial" cx="0" cy="0" r="1" gradientUnits="userSpaceOnUse" gradientTransform="translate(6.96662 -0.499397) scale(33.2072 22.0599)">
<stop stop-color="#4168C9"/>
<stop offset="0.999" stop-color="#4168C9" stop-opacity="0"/>
</radialGradient>
</defs>
</svg>
