<svg width="3079" height="364" viewBox="0 0 3079 364" fill="none" xmlns="http://www.w3.org/2000/svg">
<path d="M1555.15 1C1555.15 1 1333.64 9.00095 1207.48 113.787M1207.48 113.787C1203.57 117.031 1199.76 120.367 1196.05 123.799C1141.13 174.557 1123.15 196.591 1063.74 242.612C1004.34 288.633 877.44 391.181 760.797 355.664C662.914 325.86 576.457 223.827 459.47 222.102C290.338 219.609 164.215 379.201 65.2614 252.116C30.3736 207.311 1 82.5378 1 82.5378M1207.48 113.787C1333.67 9.00033 1555.69 1 1555.69 1M3078 82.1499C3078 82.1499 3049.21 207.095 3015.01 251.963C2918.02 379.223 2794.39 219.411 2628.61 221.908C2513.94 223.634 2429.19 325.809 2333.25 355.654C2218.91 391.22 2094.52 288.53 2036.3 242.445C1978.07 196.361 1960.44 174.296 1906.61 123.468C1785.4 9.01501 1554.62 1 1554.62 1" stroke="#FC5245" stroke-width="2"/>
</svg>
