<svg width="41" height="40" viewBox="0 0 41 40" fill="none" xmlns="http://www.w3.org/2000/svg">
<path d="M6.56241 6.21195C10.2305 2.55482 15.2058 0.5 20.3939 0.5C25.5819 0.5 30.5572 2.55482 34.2253 6.21195C37.8933 9.86902 39.9537 14.8288 39.9537 20C39.9537 25.1712 37.8933 30.131 34.2253 33.7881C30.5572 37.4452 25.5819 39.5 20.3939 39.5C15.2058 39.5 10.2305 37.4452 6.56241 33.7881C2.89439 30.131 0.833984 25.1712 0.833984 20C0.833984 14.8288 2.89439 9.86902 6.56241 6.21195Z" fill="#1976D2" stroke="black"/>
<path d="M31.8833 13.9156L31.89 13.8935C31.9249 13.7793 31.9334 13.6987 31.931 13.6476L31.9308 13.6443C31.9283 13.5826 31.9125 13.5703 31.9061 13.5654C31.9058 13.5651 31.9055 13.5649 31.9052 13.5647C31.8871 13.5501 31.8047 13.4985 31.5778 13.4985H28.952C28.7312 13.4985 28.603 13.5615 28.5151 13.6341C28.4166 13.7155 28.3346 13.8382 28.2613 14.0029L28.2578 14.0108L28.254 14.0186L27.8046 13.7996C28.254 14.0186 28.254 14.0186 28.254 14.0187L28.2539 14.0189L28.2536 14.0195L28.2525 14.0217L28.2486 14.0297L28.2338 14.0597C28.2209 14.0858 28.2018 14.124 28.1771 14.1731C28.1276 14.2714 28.0551 14.4136 27.9623 14.5909C27.7768 14.9453 27.5099 15.4406 27.1832 16.0061C26.5327 17.1322 25.6341 18.5562 24.6617 19.6979L24.6525 19.7087L24.6427 19.7189C24.3095 20.068 24.0196 20.2798 23.7302 20.3925C23.4537 20.5001 23.2154 20.4993 23.0582 20.4988C23.0475 20.4987 23.0372 20.4987 23.0273 20.4987C22.7882 20.4987 22.5136 20.3794 22.3044 20.1817C22.0727 19.9628 21.9014 19.6322 21.9014 19.1977V14.0126C21.9014 13.8571 21.8914 13.742 21.8749 13.6576C21.8583 13.5731 21.8386 13.5375 21.8312 13.5266C21.8308 13.5261 21.8305 13.5256 21.8303 13.5252C21.8281 13.522 21.8279 13.5217 21.8212 13.5188C21.8065 13.5125 21.7626 13.4985 21.6672 13.4985H17.0042C16.9687 13.4985 16.9497 13.5052 16.9412 13.509C16.9325 13.513 16.9254 13.5182 16.9185 13.5263C16.9024 13.5448 16.8834 13.5845 16.8834 13.6396C16.8834 13.6789 16.8918 13.7215 16.95 13.8148C16.9819 13.8661 17.0218 13.9217 17.0777 13.9982C17.0815 14.0034 17.0853 14.0086 17.0892 14.014C17.14 14.0836 17.2008 14.1668 17.2626 14.2595C17.5466 14.6857 17.8293 15.2784 17.8856 16.3083L17.8864 16.3219V16.3356V19.9587C17.8864 20.3941 17.8545 20.7712 17.7098 21.0434C17.6253 21.2023 17.5 21.3322 17.3306 21.4122C17.1745 21.4858 17.0187 21.4987 16.9019 21.4987C16.654 21.4987 16.4322 21.3971 16.2538 21.2793C16.0708 21.1584 15.8926 20.9932 15.7214 20.8031C15.3786 20.4226 15.0178 19.8899 14.6593 19.2522C13.9409 17.9742 13.1949 16.2084 12.5985 14.2166C12.4753 13.8439 12.3793 13.6824 12.2971 13.604C12.2425 13.5519 12.156 13.4985 11.903 13.4985H9.25205C9.09904 13.4985 9.00589 13.5175 8.95301 13.5358C8.9048 13.5525 8.89279 13.5673 8.8925 13.5676L8.8925 13.5676C8.88985 13.5706 8.85938 13.6079 8.85938 13.7726C8.85938 14.3762 9.4204 18.1724 12.6493 22.5782C14.9754 25.7518 17.9809 27.4989 20.5448 27.4989C21.382 27.4989 21.6936 27.3846 21.8038 27.302C21.853 27.265 21.9004 27.2152 21.9004 26.9048V23.9328V23.9322C21.9007 23.7175 21.9128 23.5209 21.9483 23.3482C21.9839 23.1746 22.0493 22.9947 22.1784 22.8422C22.4521 22.5191 22.8533 22.4988 23.1205 22.4988C23.7392 22.4988 24.6482 22.9077 26.1656 24.6728C26.6078 25.1871 26.9591 25.6348 27.2508 26.0141C27.3171 26.1004 27.3797 26.1822 27.4391 26.2598C27.6451 26.5291 27.8133 26.7489 27.9688 26.9332C28.3617 27.3988 28.5615 27.4989 28.8316 27.4989H31.4575C31.7028 27.4989 31.8196 27.4461 31.8655 27.4112C31.892 27.3912 31.928 27.3558 31.9316 27.2356C31.933 27.1691 31.9242 27.0815 31.896 26.9689C31.8151 26.7413 31.5773 26.2987 31.2009 25.7226C30.8247 25.1467 30.3345 24.4745 29.7899 23.8182C29.7899 23.8181 29.7899 23.8181 29.7898 23.818L30.1746 23.4988C29.5578 22.7558 28.949 22.0197 28.6691 21.6197L31.8833 13.9156ZM31.8833 13.9156L31.8786 13.9383C31.8125 14.2577 31.5732 14.7959 31.2076 15.4688C30.8513 16.1246 30.4039 16.8574 29.9634 17.5468C29.5237 18.2352 29.0944 18.8748 28.776 19.3433C28.6561 19.5197 28.5523 19.6713 28.4693 19.7926C28.442 19.8325 28.4169 19.8691 28.3943 19.9022C28.349 19.9685 28.3122 20.0224 28.287 20.0602C28.2749 20.0783 28.2627 20.0968 28.2529 20.1124C28.2491 20.1184 28.2399 20.1332 28.2306 20.1505L28.2302 20.151C28.2296 20.1523 28.2283 20.1546 28.2266 20.1579C28.098 20.3768 27.9357 20.6539 27.92 20.9741M31.8833 13.9156L28.2612 21.9089C28.0522 21.6175 27.9026 21.319 27.92 20.9741M27.92 20.9741C27.92 20.9738 27.92 20.9734 27.9201 20.9731L28.4193 20.9987L27.92 20.9744C27.92 20.9743 27.92 20.9742 27.92 20.9741Z" fill="#1C2528" stroke="black"/>
</svg>
