<svg width="156" height="29" viewBox="0 0 156 29" fill="none" xmlns="http://www.w3.org/2000/svg">
<path d="M34.1125 3.15045V4.87335C34.1125 5.02193 33.9555 5.14267 33.7624 5.14267H29.5642C29.3711 5.14267 29.2142 5.02193 29.2142 4.87335V3.15045H6.61255V4.87335C6.61255 5.02193 6.45563 5.14267 6.26216 5.14267H2.06434C1.87052 5.14267 1.71431 5.02193 1.71431 4.87335V3.15045H0V25.8712H1.71431V24.1489C1.71431 24.0003 1.87052 23.8795 2.06434 23.8795H6.26252C6.45598 23.8795 6.61291 24.0003 6.61291 24.1489V25.8712H29.2146V24.1489C29.2146 24.0003 29.3715 23.8795 29.5646 23.8795H33.7631C33.9563 23.8795 34.1132 24.0003 34.1132 24.1489V25.8712H35.8268V3.15045H34.1125ZM6.61255 19.8772C6.61255 20.0258 6.45563 20.1465 6.26216 20.1465H2.06434C1.87052 20.1465 1.71431 20.0258 1.71431 19.8772V16.6467C1.71431 16.4981 1.87052 16.3773 2.06434 16.3773H6.26252C6.45598 16.3773 6.61291 16.4981 6.61291 16.6467V19.8772H6.61255ZM6.61255 12.375C6.61255 12.5241 6.45563 12.6443 6.26216 12.6443H2.06434C1.87052 12.6443 1.71431 12.5241 1.71431 12.375V9.14503C1.71431 8.99645 1.87052 8.87571 2.06434 8.87571H6.26252C6.45598 8.87571 6.61291 8.99645 6.61291 9.14503V12.375H6.61255ZM12.8081 20.864V9.03367L24.8441 14.9489L12.8081 20.864ZM34.1125 19.8772C34.1125 20.0258 33.9555 20.1465 33.7624 20.1465H29.5642C29.3711 20.1465 29.2142 20.0258 29.2142 19.8772V16.6467C29.2142 16.4981 29.3711 16.3773 29.5642 16.3773H33.7628C33.9559 16.3773 34.1128 16.4981 34.1128 16.6467V19.8772H34.1125ZM34.1125 12.375C34.1125 12.5241 33.9555 12.6443 33.7624 12.6443H29.5642C29.3711 12.6443 29.2142 12.5241 29.2142 12.375V9.14503C29.2142 8.99645 29.3711 8.87571 29.5642 8.87571H33.7628C33.9559 8.87571 34.1128 8.99645 34.1128 9.14503V12.375H34.1125Z" fill="#8E0B0B"/>
<g filter="url(#filter0_d)">
<path d="M54.0008 4.20759H57.4407L53.5624 13.0302L57.7105 22.3718H53.7985L50.797 15.184H50.7296L47.6943 22.3718H44.2207L48.3688 13.0302L44.4905 4.20759H48.3351L51.1005 10.9024H51.168L54.0008 4.20759ZM58.8909 14.5871V11.9923H65.6358V14.5871H58.8909ZM73.2913 4.20759L75.9893 17.1042H76.0567L78.5524 4.20759H83.7122V22.3718H80.2049V9.34547H80.1374L77.6418 22.3718H74.1344L71.4365 9.52711H71.369V22.3718H68.1314V4.20759H73.2913ZM89.8164 8.38536V18.194C89.8164 19.4915 90.5583 19.9845 91.7387 19.9845C92.919 19.9845 93.661 19.4915 93.661 18.194V8.38536C93.661 7.08792 92.919 6.59489 91.7387 6.59489C90.5583 6.59489 89.8164 7.08792 89.8164 8.38536ZM86.1067 18.0124V8.567C86.1067 5.66073 88.0964 4 91.7387 4C95.3809 4 97.3707 5.66073 97.3707 8.567V18.0124C97.3707 20.9187 95.3809 22.5794 91.7387 22.5794C88.0964 22.5794 86.1067 20.9187 86.1067 18.0124ZM107.69 22.3718L103.138 9.21573H103.07V22.3718H99.7314V4.20759H104.385L108.129 15.0802H108.196V4.20759H111.501V22.3718H107.69ZM117.875 6.80248V11.8625H122.968V14.4574H117.875V19.7769H124.283V22.3718H114.166V4.20759H124.283V6.80248H117.875ZM126.576 22.3718V4.20759H132.444C136.154 4.20759 137.975 5.79047 137.975 8.69675V17.8827C137.975 20.7889 136.154 22.3718 132.444 22.3718H126.576ZM132.377 6.80248H130.286V19.7769H132.377C133.557 19.7769 134.265 19.3098 134.265 18.0124V8.567C134.265 7.26956 133.557 6.80248 132.377 6.80248ZM143.304 22.3718V16.3517L138.616 4.20759H142.494L145.293 12.4853H145.361L148.16 4.20759H151.701L147.013 16.3517V22.3718H143.304Z" fill="white"/>
</g>
<defs>
<filter id="filter0_d" x="40.2207" y="0" width="115.48" height="26.5794" filterUnits="userSpaceOnUse" color-interpolation-filters="sRGB">
<feFlood flood-opacity="0" result="BackgroundImageFix"/>
<feColorMatrix in="SourceAlpha" type="matrix" values="0 0 0 0 0 0 0 0 0 0 0 0 0 0 0 0 0 0 127 0"/>
<feOffset/>
<feGaussianBlur stdDeviation="2"/>
<feColorMatrix type="matrix" values="0 0 0 0 1 0 0 0 0 0.329412 0 0 0 0 0.247059 0 0 0 1 0"/>
<feBlend mode="normal" in2="BackgroundImageFix" result="effect1_dropShadow"/>
<feBlend mode="normal" in="SourceGraphic" in2="effect1_dropShadow" result="shape"/>
</filter>
</defs>
</svg>
